<?xml version='1.0' encoding='utf-8'?>
<svg xmlns="http://www.w3.org/2000/svg" version="1.1" width="841px" height="600px" viewBox="140 802 841 600"> <g id="layer1"> <g style="fill:rgb(0,174,199); fill-opacity:1.0; stroke-linejoin: miter"> <path d="M139.999,801.51184C139.86978,801.51184,139.74585,801.5632,139.65448,801.65454C139.56311,801.7459,139.51178,801.8698,139.51178,801.999L139.51279,1402.0C139.51279,1402.269,139.73093,1402.4872,140.0,1402.4872L981.001,1402.4882C981.1302,1402.4882,981.2541,1402.4368,981.34546,1402.3455C981.4368,1402.2542,981.48816,1402.1302,981.48816,1402.001L981.4872,802.0C981.4872,801.7309,981.2691,801.5128,981.0,801.5128L139.999,801.51184 Z"/> </g> </g> <g id="layer2"> <g style="fill:rgb(201,214,222); fill-opacity:1.0; stroke-linejoin: miter"> <path d="M535.2612,1057.1313L653.0952,1057.1317L770.9292,1057.1321Q770.9292,1082.2112,770.9292,1107.2902Q653.0952,1107.2905,535.2612,1107.2908Q535.2612,1082.211,535.2612,1057.1313"/> </g> <g style="fill:rgb(0,0,0); fill-opacity:1.0; stroke-linejoin: miter"> <path d="M426.87494,1079.6342Q409.20538,1079.6344,393.6991,1084.3219Q378.19327,1088.6493,366.29324,1097.3033Q354.754,1105.9586,347.90256,1118.9398Q341.4116,1131.9222,341.41165,1149.2311L397.66595,1162.934Q397.66595,1153.5587,404.87805,1146.7069Q412.09015,1139.8556,422.9084,1139.8556Q432.284,1139.8556,439.49603,1145.6251Q446.3474,1151.0348,446.34753,1160.4105Q446.34753,1166.901,440.93842,1173.3925Q435.8899,1179.8837,421.10522,1189.2592Q413.8932,1193.586,407.7627,1199.3561Q401.99316,1204.7643,397.30524,1212.6978Q392.97784,1220.2705,390.45386,1230.3677Q387.92938,1240.4646,387.92944,1253.8074L387.92938,1264.6255L437.69275,1264.6255Q437.6928,1260.6594,438.05347,1257.0527Q438.77484,1250.2012,440.93835,1246.2346Q447.0688,1236.4985,454.2807,1230.0076Q461.49268,1223.5164,468.70477,1218.1072Q475.91693,1213.0588,482.76837,1208.0104Q489.62006,1203.3226,495.02887,1196.4713Q500.0774,1189.62,503.3228,1179.8837Q506.5683,1170.5074,506.568,1155.7223Q506.568,1138.4135,500.4381,1124.3495Q494.66827,1110.6469,483.8504,1100.5497Q473.39288,1090.8131,458.96863,1085.0436Q444.54468,1079.6346,427.23547,1079.6344 Z M388.2901,1297.8015L388.29016,1347.5659L437.6928,1347.5662L437.6928,1297.8018 Z"/> </g> <g style="fill:rgb(0,0,0); fill-opacity:1.0; stroke-linejoin: miter"> <path d="M410.6986,929.62054Q405.09717,927.83844,399.2157,929.60223Q393.82758,931.2984,391.12903,935.7695Q388.0893,940.6632,388.27313,952.60803L393.77917,957.96173L419.9148,948.6408Q422.17633,942.409,419.69763,937.7829Q416.537,931.62213,410.70703,929.62335"/> </g> <g style="fill:rgb(0,0,0); fill-opacity:1.0; stroke-linejoin: miter"> <path d="M479.81335,1162.4799L476.42413,1173.5648Q473.12134,1176.6859,472.6906,1178.9803Q472.0155,1182.5492,475.23212,1186.8907Q477.6944,1190.0265,480.68286,1190.9274Q481.63977,1191.2267,483.0854,1191.3717Q491.53162,1191.4869,492.78394,1192.0001Q493.66626,1191.9613,502.83252,1195.4655Q504.47278,1196.0026,506.0146,1196.3085Q512.63745,1197.6699,519.1239,1192.4478Q525.3257,1186.8525,522.1765,1182.1421Q521.18896,1180.8992,519.7333,1180.2991Q518.88916,1179.9563,518.15283,1179.7754Q513.8032,1178.8782,512.9343,1178.5894Q510.95502,1177.9343,509.84497,1176.991Q506.88696,1174.5277,505.0218,1167.68L479.9074,1162.4994"/> </g> <g style="fill:rgb(0,0,0); fill-opacity:1.0; stroke-linejoin: miter"> <path d="M504.85284,1164.6559Q504.48718,1165.1752,504.85242,1164.6593 M504.65533,1164.9474L499.13983,1173.003Q496.8521,1171.6202,496.3562,1172.5392Q495.76782,1173.1915,496.46997,1176.8934L499.1206,1173.0309L499.16882,1173.0536Q500.47565,1173.8976,502.85986,1175.9315Q513.5646,1185.4548,514.0404,1185.7288Q516.6644,1187.8928,518.2809,1188.7034Q520.83997,1190.0801,522.55005,1188.4695Q527.37476,1183.3757,528.55396,1181.7981Q530.3103,1179.5693,530.6926,1178.1001Q531.4635,1175.646,527.6804,1173.7883Q526.04956,1172.949,522.52515,1171.7283Q521.1915,1171.2256,510.3573,1167.7646Q508.37695,1167.1106,507.31647,1166.7046Q504.36353,1165.5895,504.64734,1164.9777"/> </g> <g style="fill:rgb(255,196,173); fill-opacity:1.0; stroke-linejoin: miter"> <path d="M446.2796,1024.2057L431.5135,1028.951Q437.79022,1050.5817,441.84467,1055.881Q445.4458,1061.1718,449.97614,1059.2413Q454.98682,1056.6693,456.23767,1049.4589Q457.6645,1040.1681,446.30518,1024.2421"/> </g> <g style="fill:rgb(255,255,255); fill-opacity:1.0; stroke-linejoin: miter"> <path d="M383.54892,977.0686L382.4982,981.4641L362.20096,992.81836Q354.59134,1009.5547,355.1202,1018.3182Q355.0814,1022.2686,356.14444,1029.6117L381.80527,1028.1075Q377.10263,1057.2616,377.76413,1066.4901Q378.05832,1078.8678,383.69693,1089.1056L442.3545,1055.0614L436.54205,1028.6815L448.6775,1025.6613Q444.12494,1008.3193,437.026,995.7768L415.27246,985.1329L414.68622,979.81476L383.7062,977.0824"/> </g> <g style="fill:rgb(34,43,50); fill-opacity:1.0; stroke-linejoin: miter"> <path d="M485.89722,1102.8773L489.6117,1137.6808L474.0594,1102.942L485.6577,1102.8832 M430.34644,1055.119Q409.68994,1055.0624,396.79108,1065.3812Q380.882,1077.8236,384.00018,1090.9159Q404.70825,1094.6971,411.33954,1097.1656Q416.8048,1098.0402,437.0926,1107.2997Q439.77264,1108.2372,444.84845,1108.6234Q447.623,1119.0443,450.11542,1123.2931Q469.02832,1148.1832,470.45795,1152.4818Q472.56244,1156.0262,476.7119,1170.1176L510.75,1167.9121Q516.8491,1097.7844,517.43445,1092.8921Q518.0867,1087.3293,516.0891,1082.145Q506.4704,1059.8229,430.62067,1055.1207 Z"/> </g> <g style="fill:rgb(255,196,173); fill-opacity:1.0; stroke-linejoin: miter"> <path d="M383.04056,1024.7196L357.18668,1028.5673Q358.7499,1039.4501,361.21213,1046.1066Q363.3279,1052.1039,369.35135,1061.3517L386.6867,1065.2797Q390.4995,1066.1202,390.9007,1065.997Q394.315,1065.5426,396.73627,1065.4183L416.89752,1064.6066Q422.83624,1064.2936,426.11578,1063.8817Q433.45264,1062.9535,433.4287,1060.7745Q437.9447,1065.2426,441.9076,1064.9147Q445.08215,1064.5836,447.95526,1061.2452Q450.51147,1058.0236,449.94965,1055.1049Q448.25098,1050.0717,437.92645,1049.0665Q434.74707,1048.8297,431.12195,1049.5123Q429.57153,1049.6993,421.23212,1052.1478Q419.45483,1052.5878,418.21387,1052.736Q414.91174,1053.1832,411.055,1052.4852Q405.43677,1051.7316,384.3275,1043.0804Q386.4256,1037.3876,383.05563,1024.785"/> </g> <g style="fill:rgb(0,0,0); fill-opacity:1.0; stroke-linejoin: miter"> <path d="M523.85034,1020.09326L469.1972,1021.5086L444.2398,1063.775L408.60626,1063.0782L408.614,1066.8751L442.5782,1072.9974L496.6407,1069.9388L498.75098,1063.4996L523.82605,1020.13916"/> </g> <g style="fill:rgb(255,196,173); fill-opacity:1.0; stroke-linejoin: miter"> <path d="M425.19037,1062.7335Q424.6255,1062.0736,418.55963,1061.3011Q411.32086,1060.4381,409.08563,1060.725Q408.15222,1060.8317,407.6344,1061.236L406.84302,1065.0155Q409.11627,1064.9396,414.19098,1064.5262Q418.38245,1064.1906,420.89026,1063.8795Q425.53156,1063.306,425.19574,1062.7418"/> </g> <g style="fill:rgb(0,0,0); fill-opacity:1.0; stroke-linejoin: miter"> <path d="M476.94543,1169.5438Q475.0365,1172.4686,474.31537,1174.129Q473.54565,1175.8019,472.67664,1179.0673L478.48914,1177.2684L479.33813,1170.3978L476.9563,1169.5475"/> </g> <g style="fill:rgb(255,69,0); fill-opacity:1.0; stroke-linejoin: miter"> <path d="M380.217,1081.1656L384.05658,1091.1771Q383.70572,1088.2279,383.54074,1087.1769L380.2192,1081.1696"/> </g> <g style="fill:rgb(255,196,173); fill-opacity:1.0; stroke-linejoin: miter"> <path d="M401.49396,939.54706Q397.4958,939.63983,396.51605,941.7089Q396.2063,942.37994,396.17798,943.4184Q396.11877,943.79877,396.40228,946.9395Q396.4095,947.7004,396.29602,947.9803Q396.15784,948.43134,395.7647,948.75995L394.12354,949.8392Q393.77136,950.2128,393.6656,950.8603Q393.5541,951.55365,393.62494,952.45013L393.9699,955.33344L392.14874,955.67316Q392.5395,953.4234,388.84375,950.7612Q387.22412,949.8611,386.78012,951.25183Q386.15747,954.1498,387.66718,959.4114Q388.14075,960.87463,388.7337,961.6206Q389.04218,962.1351,390.59955,963.1153Q390.84088,963.32477,391.0224,963.63983Q391.46564,964.48505,391.57605,966.0234Q391.99664,972.06195,388.90314,978.01215L401.5551,982.5914L408.86505,994.2404L411.7987,983.95306L412.50238,976.5535Q416.57172,972.4202,419.41882,962.8337Q419.70276,961.6148,419.78485,960.34247L419.91766,955.13043L420.35992,948.8359Q420.48383,946.2271,420.27075,944.6717Q419.96307,941.722,417.85352,941.23346Q417.2542,941.0666,416.28857,941.0466Q411.64734,941.2946,410.836,941.1031Q410.1421,941.1352,404.07568,939.7751Q402.65656,939.53595,401.50208,939.5468"/> </g> <g style="fill:rgb(255,72,0); fill-opacity:0.21176471; stroke-linejoin: miter"> <path d="M395.09644,971.89374Q395.74792,972.66473,395.10962,971.9078 M395.44867,972.31036L403.44135,981.9554L411.58673,976.9194Q407.01788,979.2542,403.38226,978.22614Q399.87207,977.2017,395.46387,972.3265"/> </g> <g style="fill:rgb(0,0,0); fill-opacity:0.11764706; stroke-linejoin: miter"> <path d="M381.10983,1003.8474L383.04068,1022.95514Q383.43936,1020.1556,383.50058,1018.4632Q383.584,1016.55817,383.38742,1014.59894Q383.0018,1010.74133,381.1116,1003.85315L381.10983,1003.8474 Z M438.56232,1010.1641L437.67047,1027.4762Q438.7298,1024.7802,439.12622,1023.1851Q439.5946,1021.3589,439.68005,1019.624Q439.8623,1016.1345,438.56488,1010.17596L438.56232,1010.1641 Z M417.88947,1045.8673Q411.90576,1045.8676,403.0952,1047.0023L434.26978,1047.6647L434.2967,1047.6649Q428.72992,1046.6844,425.56525,1046.3309Q421.9947,1045.9176,418.73022,1045.8732Q418.31714,1045.8673,417.88947,1045.8673 Z M497.5738,1084.597L487.17902,1099.3358Q491.7378,1095.6876,493.5763,1092.9767Q495.67792,1090.0082,497.5666,1084.618L497.5738,1084.597 Z M446.31097,1094.2692L442.4619,1101.3644Q443.9646,1100.8593,444.61304,1100.4166Q445.36627,1099.9288,445.76056,1099.2059Q446.54333,1097.7716,446.31158,1094.2731L446.31097,1094.2692 Z M456.641,1073.4567Q460.67355,1075.2675,462.62067,1076.9235Q465.0069,1078.8615,466.62958,1081.8058Q469.59485,1086.7699,472.89246,1103.5953L471.38837,1079.9838L456.64246,1073.4567 Z M449.13,1099.5577L444.76404,1106.0704L448.23328,1104.2667L449.1281,1099.5675L449.13,1099.5577 Z M490.04968,1137.8514L496.91156,1169.347Q497.17596,1163.0311,496.99622,1159.7494Q496.82336,1155.9816,496.12012,1152.7523Q494.73273,1146.3842,490.0558,1137.8615L490.04968,1137.8514 Z M499.69354,1169.0712Q510.00714,1175.1584,514.9031,1178.4949Q519.27954,1181.4575,521.0498,1183.6143L516.52,1177.0369L516.5023,1177.0117L499.69543,1169.0712 Z M521.0571,1183.6228L522.49146,1185.7043Q521.7457,1184.4402,521.0742,1183.6433L521.0571,1183.6228 Z"/> </g> <g style="fill:rgb(34,43,50); fill-opacity:1.0; stroke-linejoin: miter"> <path d="M521.1616,1191.1558Q522.2981,1188.7141,519.32227,1186.044Q516.1675,1183.3933,511.07806,1182.3591Q505.31726,1181.3033,499.20105,1182.1412Q496.81384,1182.4811,495.2964,1183.0721Q494.15314,1183.5118,492.62677,1184.859Q492.2821,1185.0438,491.8012,1185.0533Q491.12665,1185.0582,489.86536,1184.7299L482.85614,1182.6434Q480.93488,1182.1171,479.7329,1181.9178Q475.84332,1181.2719,472.8405,1181.7845L473.23383,1183.7301Q474.43848,1185.8922,475.3247,1187.0663Q477.0772,1189.3954,479.50208,1190.5768Q480.2262,1190.913,481.03052,1191.0419Q486.4887,1191.4108,490.10406,1192.2252Q491.87842,1192.6205,493.63214,1193.1346L500.53265,1195.3026Q502.21002,1195.7745,503.79095,1196.0773Q508.86514,1197.0842,513.8237,1195.7358Q519.51685,1194.094,521.1355,1191.2041"/> </g> <g style="fill:rgb(255,255,255); fill-opacity:1.0; stroke-linejoin: miter"> <path d="M536.4779,1052.3599L536.4779,1052.3599L772.96515,1052.3608C774.4664,1052.3608,775.6834,1053.5779,775.6834,1055.0791L775.6834,1055.0791L775.6834,1106.7574C775.6834,1108.2587,774.4664,1109.4757,772.96515,1109.4757L772.96515,1109.4757L536.4779,1109.4767C535.75696,1109.4767,535.06555,1109.1903,534.5558,1108.6805C534.046,1108.1708,533.75964,1107.4794,533.75964,1106.7584L533.75964,1106.7584L533.75964,1055.0781C533.75964,1054.3572,534.046,1053.6658,534.5558,1053.156C535.06555,1052.6462,535.75696,1052.3599,536.4779,1052.3599L536.4779,1052.3599 M536.4779,1057.7964L539.19617,1055.0781L539.19617,1106.7584L536.4779,1104.0402L772.96515,1104.0392L770.2469,1106.7574L770.2469,1055.0791L772.96515,1057.7974L536.4779,1057.7964 Z"/> </g> <g style="fill:rgb(255,255,255); fill-opacity:1.0; stroke-linejoin: miter"> <path d="M749.5946,1079.0947L749.5946,1079.0947C749.5945,1087.803,742.53503,1094.8623,733.827,1094.8622L733.827,1094.8622C725.1189,1094.8623,718.05945,1087.803,718.05945,1079.0946L718.05945,1079.0946C718.05945,1070.3865,725.1189,1063.3271,733.827,1063.3271L733.827,1063.3271C742.53503,1063.3271,749.5945,1070.3862,749.5946,1079.0947L749.5946,1079.0947 M744.431,1079.0946L744.431,1079.0946C744.431,1073.2379,739.6835,1068.4905,733.827,1068.4904L733.827,1068.4904C727.97046,1068.4904,723.2229,1073.238,723.2229,1079.0945L723.2229,1079.0945C723.2229,1084.951,727.97046,1089.6986,733.827,1089.6986L733.827,1089.6986C739.68335,1089.6985,744.431,1084.9512,744.431,1079.0946 Z"/> </g> <g style="fill:rgb(255,255,255); fill-opacity:1.0; stroke-linejoin: miter"> <path d="M745.5082,1082.9022L758.91895,1091.7733L772.3298,1100.6444Q770.5341,1103.3588,768.73846,1106.0735Q755.3273,1097.2032,741.91626,1088.333L745.5082,1082.9022"/> </g> <g style="fill:rgb(8,101,131); fill-opacity:0.10980392; stroke-linejoin: miter"> <path d="M745.3801,1078.0063L745.4227,1079.5581Q745.41364,1081.356,744.3197,1084.0548Q743.4664,1085.8151,741.8148,1087.4211Q738.57874,1090.516,733.5447,1090.4901Q731.6431,1090.4358,729.2545,1089.4784Q727.7325,1088.8206,725.99524,1087.2021Q724.28735,1085.4037,723.70514,1083.9961Q722.89075,1081.9823,722.8776,1081.5049Q722.6954,1080.6278,722.6378,1079.6885Q722.49554,1077.3573,723.3539,1075.0232Q723.6824,1073.6287,725.7257,1071.2113Q729.03723,1067.906,733.41437,1067.7051Q738.1042,1067.5038,741.4731,1070.4438Q743.36816,1072.1404,744.2859,1074.0798Q745.1241,1075.7607,745.3801,1078.0063"/> </g> <g style="fill:rgb(255,255,255); fill-opacity:1.0; stroke-linejoin: miter"> <path d="M539.8768,1116.5499L654.6723,1116.5504L769.46783,1116.5509Q769.46783,1216.3875,769.46783,1316.224Q654.6723,1316.2245,539.8768,1316.225Q539.8768,1216.3875,539.8768,1116.5499"/> </g> <g style="fill:rgb(255,255,255); fill-opacity:1.0; stroke-linejoin: miter"> <path d="M628.58057,1071.194L628.58057,1071.1942L628.5806,1071.1943L628.58057,1071.1942L628.58057,1071.194L628.58057,1071.1942L628.5806,1071.1943Q628.58057,1071.1942,628.58057,1071.194"/> </g> <g> <g style="fill:rgb(255,255,255); fill-opacity:1.0; stroke-linejoin: miter"> <path d="M572.8874,1132.745L572.8874,1132.7452L572.88745,1132.7454L572.8874,1132.7452L572.8874,1132.745L572.8874,1132.7452L572.88745,1132.7454Q572.8874,1132.7452,572.8874,1132.745"/> </g> <g style="fill:rgb(146,159,168); fill-opacity:0.13333334; stroke-linejoin: miter"> <path d="M559.61707,1129.2552L654.6723,1129.2557L749.7276,1129.2561Q749.7276,1216.3875,749.7276,1303.5188Q654.6723,1303.5193,559.61707,1303.5198Q559.61707,1216.3875,559.61707,1129.2552"/> </g> <g style="fill:rgb(83,93,102); fill-opacity:0.1254902; stroke-linejoin: miter"> <path d="M572.8874,1153.6892L670.37756,1153.6902L670.37756,1164.991L572.8874,1164.992L572.8874,1153.6892"/> </g> <g style="fill:rgb(83,93,102); fill-opacity:0.09019608; stroke-linejoin: miter"> <path d="M572.8874,1185.9357L707.94934,1185.9366L707.94934,1197.2374L572.8874,1197.2384L572.8874,1185.9357"/> </g> <g style="fill:rgb(83,93,102); fill-opacity:0.14509805; stroke-linejoin: miter"> <path d="M572.8873,1218.1823L700.5823,1218.1832L700.5823,1229.484L572.8873,1229.485L572.8873,1218.1823"/> </g> <g style="fill:rgb(83,93,102); fill-opacity:0.101960786; stroke-linejoin: miter"> <path d="M572.8874,1250.4288L684.6205,1250.4298L684.6205,1261.7306L572.8874,1261.7316L572.8874,1250.4288"/> </g> <g style="fill:rgb(83,93,102); fill-opacity:0.11372549; stroke-linejoin: miter"> <path d="M572.8874,1282.6757L670.37756,1282.6766L670.37756,1293.9774L572.8874,1293.9784L572.8874,1282.6757"/> </g> </g> <g style="fill:rgb(0,0,0); fill-opacity:1.0; stroke-linejoin: miter"> <path d="M888.7414,1347.3837L886.01544,1347.8636Q866.6352,1349.3141,772.6023,1350.1836Q677.91864,1351.0525,549.6094,1350.8883Q427.1549,1350.6587,353.73672,1349.5449Q280.37778,1348.4236,294.24307,1346.9038Q313.62314,1345.4532,407.6563,1344.5836Q502.33997,1343.7147,630.6492,1343.879Q753.1034,1344.1085,826.5218,1345.2223Q850.04584,1345.5824,865.27496,1346.007L878.07477,1346.4435Q888.62286,1346.8939,888.7414,1347.3837"/> </g> <g style="fill:rgb(83,93,102); fill-opacity:0.1254902; stroke-linejoin: miter"> <path d="M555.4267,1076.6051L604.17175,1076.6056L652.9169,1076.6061Q652.9169,1082.2565,652.9169,1087.9069Q604.17175,1087.9073,555.4267,1087.9078Q555.4267,1082.2565,555.4267,1076.6051"/> </g> </g> </svg>